<mxfile compressed="false" type="device">
    <diagram id="Page-1" name="Page-1">
      <mxGraphModel arrows="1" connect="1" dx="1360" dy="864" fold="1" grid="1" gridSize="10" guides="1" math="0" page="1" pageHeight="1169" pageScale="1" pageWidth="827" shadow="1" tooltips="1">
        <root>
          <mxCell id="0" />   
          <mxCell id="1" parent="0" />
        <object id="node-1" label="node-1">
      <mxCell parent="1" style="rounded=1;whiteSpace=wrap;html=1;" vertex="1">
          <mxGeometry as="geometry" height="60" width="120" x="401" y="759" />
      </mxCell>
    </object><object id="node-2" label="node-2">
      <mxCell parent="1" style="rounded=1;whiteSpace=wrap;html=1;" vertex="1">
          <mxGeometry as="geometry" height="60" width="120" x="564" y="864" />
      </mxCell>
    </object><object id="node-3" label="node-3">
      <mxCell parent="1" style="rounded=1;whiteSpace=wrap;html=1;" vertex="1">
          <mxGeometry as="geometry" height="60" width="120" x="877" y="74" />
      </mxCell>
    </object><object id="node-4" label="node-4">
      <mxCell parent="1" style="rounded=1;whiteSpace=wrap;html=1;" vertex="1">
          <mxGeometry as="geometry" height="60" width="120" x="1108" y="325" />
      </mxCell>
    </object><object id="node-5" label="node-5">
      <mxCell parent="1" style="rounded=1;whiteSpace=wrap;html=1;" vertex="1">
          <mxGeometry as="geometry" height="60" width="120" x="1011" y="167" />
      </mxCell>
    </object><object a="b" c="d" id="node-6" label="node-6" link="http://google.com">
      <mxCell parent="1" style="rounded=1;whiteSpace=wrap;html=1;" vertex="1">
          <mxGeometry as="geometry" height="60" width="120" x="279" y="286" />
      </mxCell>
    </object><object id="98b6238be5acd1302f49c499f9173e32" label="bla1">
      <mxCell edge="1" parent="1" source="node-1" style="endArrow=none;" target="node-2">
          <mxGeometry as="geometry" relative="1" />
      </mxCell>
    </object><object id="8378aa3d5884c28201c69e1b651ca070" label="bla2">
      <mxCell edge="1" parent="1" source="node-1" style="endArrow=none;" target="node-3">
          <mxGeometry as="geometry" relative="1" />
      </mxCell>
    </object><object id="18ce17868140f24d8c99764b4c46a64b" label="bla3">
      <mxCell edge="1" parent="1" source="node-3" style="endArrow=none;" target="node-5">
          <mxGeometry as="geometry" relative="1" />
      </mxCell>
    </object><object id="3972a5fc4a57b84e0376216959d97b1c" label="bla4">
      <mxCell edge="1" parent="1" source="node-3" style="endArrow=none;" target="node-4">
          <mxGeometry as="geometry" relative="1" />
      </mxCell>
    </object><object id="node-33" label="node-33">
      <mxCell parent="1" style="rounded=1;whiteSpace=wrap;html=1;" vertex="1">
          <mxGeometry as="geometry" height="60" width="120" x="252" y="462" />
      </mxCell>
    </object><object id="node-44" label="node-44">
      <mxCell parent="1" style="rounded=1;whiteSpace=wrap;html=1;" vertex="1">
          <mxGeometry as="geometry" height="60" width="120" x="483" y="403" />
      </mxCell>
    </object><object id="213c037a35c65e2604a579605de2ff33" label="bla77">
      <mxCell edge="1" parent="1" source="node-33" style="endArrow=none;" target="node-44">
          <mxGeometry as="geometry" relative="1" />
      </mxCell>
    </object><object cd="123" ef="456" id="b8265771b30c587887a1e47da301c3a1" label="bla6">
      <mxCell edge="1" parent="1" source="node-6" style="endArrow=none;" target="node-1">
          <mxGeometry as="geometry" relative="1" />
      </mxCell>
    </object></root>
      </mxGraphModel>
    </diagram><diagram id="page_2" name="PAGE 2">
      <mxGraphModel arrows="1" connect="1" dx="1360" dy="864" fold="1" grid="1" gridSize="10" guides="1" math="0" page="1" pageHeight="1169" pageScale="1" pageWidth="827" shadow="1" tooltips="1">
        <root>
          <mxCell id="0" />   
          <mxCell id="1" parent="0" />
        <object id="node-25" label="node-25" link="data:page/id,Page-1">
      <mxCell parent="1" style="rounded=1;whiteSpace=wrap;html=1;" vertex="1">
          <mxGeometry as="geometry" height="60" width="120" x="1360" y="432" />
      </mxCell>
    </object><object id="node-2" label="node-2 same id is on page 1">
      <mxCell parent="1" style="rounded=1;whiteSpace=wrap;html=1;" vertex="1">
          <mxGeometry as="geometry" height="60" width="120" x="0" y="432" />
      </mxCell>
    </object></root>
      </mxGraphModel>
    </diagram></mxfile>